<?xml version="1.0" encoding="UTF-8"?>
<svg width="3000" height="3000" xmlns="http://www.w3.org/2000/svg">
 <title>clef</title>
 <g>
  <title>Layer 1</title>
  <path d="m955.650024,2286.26001c-150.866028,-8.76001 -304.899048,-103.389893 -397.022034,-212c-106.804993,-125.920044 -150.839996,-297.130005 -139.559998,-437.72998c33.13501,-413.109985 482.382996,-657.275024 648.682007,-837.725037c111.319946,-120.786011 134.650024,-179.666992 159.52002,-241.789001c48.130005,-120.246979 55.890015,-261.134003 -39.550049,-271.651978c-91.109985,-10.042999 -166.069946,133.243988 -199.547974,231.169983c-30.106995,88.078979 -50.117981,176.448975 -32.003967,309.190979c8.139954,59.637024 232.191956,1724.345093 235.971985,1750.154907c37.73999,257.870117 -109.73999,364.580078 -260.281006,383.560059c-325.088989,40.97998 -429.399994,-289.379883 -283.697998,-414.849854c112.170959,-96.610107 275.362976,-13.670166 266.546997,145.149902c-7.807007,140.669922 -145.739014,144.810059 -180.984009,141.600098c54.103027,97.030029 461.985962,147.72998 399.355957,-290.660156c-8.799927,-61.609863 -215.845947,-1625.998901 -220.919983,-1661.004944c-37.981995,-262.070007 -43.769958,-469.507996 92.77002,-711.581985c50.409973,-89.363899 130.080017,-147.056002 169.179993,-139.502903c8.599976,1.659601 17.160034,4.8153 23.959961,11.829102c104.740112,107.920795 136.869995,347.24181 125.390015,484.719776c-11.75,140.766052 -18.299927,286.489014 -158.26001,456.426025c-54.169922,65.764954 -219.460938,210.634949 -314.230957,293.865051c-133.159973,116.949951 -229.742981,219.089966 -282.002014,342.299927c-58.727966,138.48999 -68.669983,312.810059 63.97699,467.48999c76.302002,87.390137 202.903015,149.400146 309.450012,150.719971c296.256042,3.680176 382.776062,-142.359863 385.536072,-307.73999c4.549927,-272.319946 -324.210083,-375.269897 -459.371033,-188.029907c-78.369019,108.569946 -43.923035,222.839966 8.710999,277.209961c18.065979,18.660034 38.245972,32.869995 57.337952,40.799927c6.919006,2.870117 23.193054,10.430176 18.574036,21.51001c-3.843018,9.219971 -11.30603,9.73999 -18.104004,8.920166c-85.234985,-10.220215 -179.61499,-91.690063 -202.822998,-231.830078c-33.817017,-204.25 146.426025,-446.540039 403.714966,-406.910034c168.440063,25.940063 324.830078,170.880005 311.109985,440.76001c-11.76001,231.309937 -203.519897,412.369995 -491.429932,395.630005l0,0z" transform="rotate(-0.027732)" fill="black" id="clef"/>
 </g>
</svg>